<?xml version="1.0" standalone="no"?>
<!DOCTYPE svg PUBLIC "-//W3C//DTD SVG 20010904//EN"
 "http://www.w3.org/TR/2001/REC-SVG-20010904/DTD/svg10.dtd">
<svg version="1.0" xmlns="http://www.w3.org/2000/svg"
 width="258.000000pt" height="273.000000pt" viewBox="0 0 258.000000 273.000000"
 preserveAspectRatio="xMidYMid meet">

<g transform="translate(0.000000,273.000000) scale(0.100000,-0.100000)"
fill="#ffffff" stroke="none">
<path d="M2402 2699 c-62 -31 -128 -94 -260 -249 -64 -75 -179 -209 -255 -298
-85 -100 -147 -164 -162 -168 -14 -3 -116 1 -227 10 -576 47 -850 69 -1112 91
l-289 25 -21 -27 c-73 -91 -78 -101 -59 -111 35 -19 383 -176 683 -309 406
-180 550 -249 550 -263 0 -19 -234 -314 -394 -497 -70 -81 -71 -82 -120 -82
-27 -1 -137 8 -245 20 -228 24 -273 22 -309 -15 -23 -23 -25 -28 -12 -40 8 -8
105 -62 215 -119 226 -118 298 -159 339 -196 15 -14 101 -118 190 -230 88
-112 166 -210 173 -218 17 -22 37 -11 58 32 20 44 22 35 -72 350 -29 99 -53
192 -53 207 0 30 57 103 281 363 168 195 200 227 215 217 6 -4 69 -90 139
-192 468 -677 635 -915 646 -918 13 -5 88 78 95 106 8 28 -16 125 -162 651
-214 771 -244 884 -250 920 -5 34 2 45 133 206 76 94 189 231 252 305 170 204
235 355 181 423 -27 34 -85 37 -148 6z"/>
</g>
</svg>
